# xmcd
#
# Track frame offsets: 
#        150
#        11741
#        19908
#        36244
#        47819
#        56011
#        69542
#        79548
#        89653
#        102279
#        116263
#
# Disc length: 1649 seconds
#
# Revision: 1
# Processed by: cddbd v1.5.2PL0 Copyright (c) Steve Scherf et al.
# Submitted via: ExactAudioCopyFreeDBPlugin 1.0
#
DISCID=8c066f0b
DTITLE=Stars at Studio 99 - Johnny Cash - A Tribute Performed By The S
DTITLE=tars At Studio 99
DYEAR=2005
DGENRE=Country
TTITLE0=I walk the line
TTITLE1=Five fett high and rising
TTITLE2=A boy named sue
TTITLE3=Ring of fire
TTITLE4=Guess things happen that way
TTITLE5=Don't take your guns to town
TTITLE6=Ballad of a tenage queen
TTITLE7=The ways of a woman in love
TTITLE8=Jackson
TTITLE9=It ain't me babe
TTITLE10=Come in stranger
EXTD=
EXTT0=
EXTT1=
EXTT2=
EXTT3=
EXTT4=
EXTT5=
EXTT6=
EXTT7=
EXTT8=
EXTT9=
EXTT10=
PLAYORDER=
